<?xml version="1.0" encoding="utf-8"?>
<!-- Generator: Adobe Illustrator 25.2.0, SVG Export Plug-In . SVG Version: 6.00 Build 0)  -->
<svg version="1.1" xmlns="http://www.w3.org/2000/svg" xmlns:xlink="http://www.w3.org/1999/xlink" x="0px" y="0px"
	 viewBox="0 0 41 41" style="enable-background:new 0 0 41 41;" xml:space="preserve">
<style type="text/css">
	.st0{fill-rule:evenodd;clip-rule:evenodd;fill:#2CA53C;}
	.st1{fill:#FFFFFF;}
</style>
<g id="Layer_2">
	<circle class="st0" cx="20.5" cy="20.5" r="20.5"/>
</g>
<g id="whatsapp" text-rendering="geometricPrecision" image-rendering="optimizeQuality" shape-rendering="geometricPrecision">
	<path class="st1" d="M20.6,9.4c3.1,0,5.9,1.2,7.9,3.2s3.2,4.8,3.2,7.9s-1.2,5.9-3.2,7.9s-4.8,3.2-7.9,3.2c-1.2,0-2.3-0.2-3.4-0.5
		c-0.9-0.3-1.9-0.8-2.6-1.3l-3.8,1.3l-1.9,0.6l0.7-1.9l1.4-3.9c-0.4-0.8-0.8-1.6-1-2.4c-0.3-1-0.4-2-0.4-3.1c0-3.1,1.2-5.9,3.2-7.9
		S17.5,9.4,20.6,9.4z M17.7,15.6c0,0-1.2-0.5-2,0.3c-0.8,0.8-1,2.1-0.2,3.7c0,0,1.8,4.2,7,5.6c0,0,1.5,0.3,2.7-0.5
		c0,0,1.4-1.1,0.6-2.1c0,0-1.5-0.8-1.7-0.9c-0.2-0.1-0.9-0.1-1.2,0.5c-0.1,0.8-0.5,0.8-0.9,0.8c-0.4,0-2.6-0.9-4.3-3.3
		c0,0-0.3-0.8,0.3-1c0,0,0.6-0.3,0.5-1.1L17.7,15.6z M27.1,14c-1.7-1.7-4-2.7-6.5-2.7s-4.8,1.1-6.5,2.7s-2.7,4-2.7,6.5
		c0,0.9,0.1,1.7,0.3,2.5c0.2,0.8,0.6,1.6,1,2.3l0.3,0.4l-0.2,0.5L12,28.6l2.3-0.8l0.5-0.2l0.4,0.3c0.8,0.6,1.7,1,2.6,1.3
		c0.9,0.3,1.9,0.4,2.8,0.4c2.5,0,4.8-1,6.5-2.7s2.7-4,2.7-6.5S28.7,15.6,27.1,14z"/>
</g>
</svg>
